<?xml version="1.0" encoding="UTF-8" standalone="no"?>
<!DOCTYPE svg PUBLIC "-//W3C//DTD SVG 1.1//EN"
 "http://www.w3.org/Graphics/SVG/1.1/DTD/svg11.dtd">
<!-- Generated by graphviz version 4.0.0 (20220529.0937)
 -->
<!-- Pages: 1 -->
<svg width="620pt" height="426pt"
 viewBox="0.00 0.00 620.14 425.95" xmlns="http://www.w3.org/2000/svg" xmlns:xlink="http://www.w3.org/1999/xlink">
<g id="graph0" class="graph" transform="scale(1 1) rotate(0) translate(4 421.95)">
<polygon fill="white" stroke="transparent" points="-4,4 -4,-421.95 616.14,-421.95 616.14,4 -4,4"/>
<!-- 30 -->
<g id="node1" class="node">
<title>30</title>
<ellipse fill="none" stroke="black" cx="359.93" cy="-158.78" rx="27" ry="18"/>
<text text-anchor="middle" x="359.93" y="-154.58" font-family="Times,serif" font-size="14.00">30</text>
</g>
<!-- 1 -->
<g id="node2" class="node">
<title>1</title>
<ellipse fill="none" stroke="black" cx="392.49" cy="-74.97" rx="27" ry="18"/>
<text text-anchor="middle" x="392.49" y="-70.77" font-family="Times,serif" font-size="14.00">1</text>
</g>
<!-- 30&#45;&gt;1 -->
<g id="edge1" class="edge">
<title>30&#45;&gt;1</title>
<path fill="none" stroke="black" d="M366.83,-141.01C371.22,-129.71 376.99,-114.86 381.95,-102.11"/>
<polygon fill="black" stroke="black" points="385.35,-103.02 385.71,-92.43 378.82,-100.49 385.35,-103.02"/>
</g>
<!-- 29 -->
<g id="node3" class="node">
<title>29</title>
<ellipse fill="none" stroke="black" cx="253.36" cy="-154.79" rx="27" ry="18"/>
<text text-anchor="middle" x="253.36" y="-150.59" font-family="Times,serif" font-size="14.00">29</text>
</g>
<!-- 30&#45;&gt;29 -->
<g id="edge2" class="edge">
<title>30&#45;&gt;29</title>
<path fill="none" stroke="black" d="M332.76,-157.76C319.98,-157.28 304.55,-156.7 290.69,-156.18"/>
<polygon fill="black" stroke="black" points="290.6,-152.68 280.48,-155.8 290.34,-159.67 290.6,-152.68"/>
</g>
<!-- 28 -->
<g id="node4" class="node">
<title>28</title>
<ellipse fill="none" stroke="black" cx="304.24" cy="-175.1" rx="27" ry="18"/>
<text text-anchor="middle" x="304.24" y="-170.9" font-family="Times,serif" font-size="14.00">28</text>
</g>
<!-- 30&#45;&gt;28 -->
<g id="edge3" class="edge">
<title>30&#45;&gt;28</title>
<path fill="none" stroke="black" d="M335.02,-166.08C334.89,-166.12 334.77,-166.15 334.65,-166.19"/>
<polygon fill="black" stroke="black" points="337.7,-161.65 329.09,-167.82 339.67,-168.36 337.7,-161.65"/>
</g>
<!-- 29&#45;&gt;28 -->
<g id="edge4" class="edge">
<title>29&#45;&gt;28</title>
<path fill="none" stroke="black" d="M276.72,-164.11C276.8,-164.15 276.89,-164.18 276.97,-164.21"/>
<polygon fill="black" stroke="black" points="270.22,-165.28 280.8,-165.74 272.81,-158.78 270.22,-165.28"/>
</g>
<!-- 5 -->
<g id="node5" class="node">
<title>5</title>
<ellipse fill="none" stroke="black" cx="162.5" cy="-164.06" rx="27" ry="18"/>
<text text-anchor="middle" x="162.5" y="-159.86" font-family="Times,serif" font-size="14.00">5</text>
</g>
<!-- 29&#45;&gt;5 -->
<g id="edge5" class="edge">
<title>29&#45;&gt;5</title>
<path fill="none" stroke="black" d="M226.59,-157.52C218.07,-158.39 208.49,-159.37 199.39,-160.3"/>
<polygon fill="black" stroke="black" points="198.98,-156.82 189.39,-161.32 199.69,-163.78 198.98,-156.82"/>
</g>
<!-- 27 -->
<g id="node6" class="node">
<title>27</title>
<ellipse fill="none" stroke="black" cx="269" cy="-245.38" rx="27" ry="18"/>
<text text-anchor="middle" x="269" y="-241.18" font-family="Times,serif" font-size="14.00">27</text>
</g>
<!-- 28&#45;&gt;27 -->
<g id="edge6" class="edge">
<title>28&#45;&gt;27</title>
<path fill="none" stroke="black" d="M295.53,-192.47C291.52,-200.47 286.67,-210.14 282.22,-219.01"/>
<polygon fill="black" stroke="black" points="278.97,-217.7 277.61,-228.2 285.22,-220.83 278.97,-217.7"/>
</g>
<!-- 6 -->
<g id="node7" class="node">
<title>6</title>
<ellipse fill="none" stroke="black" cx="273.96" cy="-90.85" rx="27" ry="18"/>
<text text-anchor="middle" x="273.96" y="-86.65" font-family="Times,serif" font-size="14.00">6</text>
</g>
<!-- 28&#45;&gt;6 -->
<g id="edge7" class="edge">
<title>28&#45;&gt;6</title>
<path fill="none" stroke="black" d="M297.82,-157.23C293.74,-145.88 288.37,-130.95 283.77,-118.13"/>
<polygon fill="black" stroke="black" points="286.95,-116.63 280.27,-108.41 280.36,-119 286.95,-116.63"/>
</g>
<!-- 7 -->
<g id="node8" class="node">
<title>7</title>
<ellipse fill="none" stroke="black" cx="323.41" cy="-85.45" rx="27" ry="18"/>
<text text-anchor="middle" x="323.41" y="-81.25" font-family="Times,serif" font-size="14.00">7</text>
</g>
<!-- 28&#45;&gt;7 -->
<g id="edge8" class="edge">
<title>28&#45;&gt;7</title>
<path fill="none" stroke="black" d="M308.12,-156.96C310.8,-144.44 314.41,-127.56 317.44,-113.34"/>
<polygon fill="black" stroke="black" points="320.87,-114.07 319.54,-103.56 314.02,-112.61 320.87,-114.07"/>
</g>
<!-- 19 -->
<g id="node9" class="node">
<title>19</title>
<ellipse fill="none" stroke="black" cx="330.99" cy="-257.02" rx="27" ry="18"/>
<text text-anchor="middle" x="330.99" y="-252.82" font-family="Times,serif" font-size="14.00">19</text>
</g>
<!-- 28&#45;&gt;19 -->
<g id="edge9" class="edge">
<title>28&#45;&gt;19</title>
<path fill="none" stroke="black" d="M310.05,-192.88C313.55,-203.61 318.09,-217.51 322.05,-229.63"/>
<polygon fill="black" stroke="black" points="318.77,-230.86 325.2,-239.28 325.42,-228.68 318.77,-230.86"/>
</g>
<!-- 4 -->
<g id="node10" class="node">
<title>4</title>
<ellipse fill="none" stroke="black" cx="106.12" cy="-98.41" rx="27" ry="18"/>
<text text-anchor="middle" x="106.12" y="-94.21" font-family="Times,serif" font-size="14.00">4</text>
</g>
<!-- 5&#45;&gt;4 -->
<g id="edge10" class="edge">
<title>5&#45;&gt;4</title>
<path fill="none" stroke="black" d="M148.85,-148.17C142.06,-140.26 133.73,-130.56 126.23,-121.82"/>
<polygon fill="black" stroke="black" points="128.81,-119.46 119.64,-114.15 123.5,-124.02 128.81,-119.46"/>
</g>
<!-- 20 -->
<g id="node11" class="node">
<title>20</title>
<ellipse fill="none" stroke="black" cx="117.04" cy="-242.29" rx="27" ry="18"/>
<text text-anchor="middle" x="117.04" y="-238.09" font-family="Times,serif" font-size="14.00">20</text>
</g>
<!-- 5&#45;&gt;20 -->
<g id="edge11" class="edge">
<title>5&#45;&gt;20</title>
<path fill="none" stroke="black" d="M152.63,-181.03C146.62,-191.39 138.81,-204.83 132.04,-216.48"/>
<polygon fill="black" stroke="black" points="128.88,-214.94 126.89,-225.35 134.94,-218.46 128.88,-214.94"/>
</g>
<!-- 27&#45;&gt;19 -->
<g id="edge12" class="edge">
<title>27&#45;&gt;19</title>
<path fill="none" stroke="black" d="M295.29,-250.31C295.39,-250.33 295.49,-250.35 295.59,-250.37"/>
<polygon fill="black" stroke="black" points="294.39,-253.7 304.86,-252.11 295.68,-246.82 294.39,-253.7"/>
</g>
<!-- 26 -->
<g id="node12" class="node">
<title>26</title>
<ellipse fill="none" stroke="black" cx="287.88" cy="-322.05" rx="27" ry="18"/>
<text text-anchor="middle" x="287.88" y="-317.85" font-family="Times,serif" font-size="14.00">26</text>
</g>
<!-- 27&#45;&gt;26 -->
<g id="edge13" class="edge">
<title>27&#45;&gt;26</title>
<path fill="none" stroke="black" d="M273.38,-263.16C275.65,-272.38 278.48,-283.86 281.03,-294.23"/>
<polygon fill="black" stroke="black" points="277.67,-295.22 283.46,-304.1 284.47,-293.55 277.67,-295.22"/>
</g>
<!-- 16 -->
<g id="node13" class="node">
<title>16</title>
<ellipse fill="none" stroke="black" cx="379.64" cy="-303.32" rx="27" ry="18"/>
<text text-anchor="middle" x="379.64" y="-299.12" font-family="Times,serif" font-size="14.00">16</text>
</g>
<!-- 19&#45;&gt;16 -->
<g id="edge14" class="edge">
<title>19&#45;&gt;16</title>
<path fill="none" stroke="black" d="M346.65,-271.92C349.86,-274.98 353.31,-278.26 356.71,-281.5"/>
<polygon fill="black" stroke="black" points="354.35,-284.08 364.01,-288.44 359.18,-279.01 354.35,-284.08"/>
</g>
<!-- 18 -->
<g id="node14" class="node">
<title>18</title>
<ellipse fill="none" stroke="black" cx="328.83" cy="-356.29" rx="27" ry="18"/>
<text text-anchor="middle" x="328.83" y="-352.09" font-family="Times,serif" font-size="14.00">18</text>
</g>
<!-- 19&#45;&gt;18 -->
<g id="edge15" class="edge">
<title>19&#45;&gt;18</title>
<path fill="none" stroke="black" d="M330.6,-275.23C330.28,-289.92 329.82,-310.86 329.45,-327.77"/>
<polygon fill="black" stroke="black" points="325.94,-328.13 329.23,-338.2 332.94,-328.28 325.94,-328.13"/>
</g>
<!-- 2 -->
<g id="node15" class="node">
<title>2</title>
<ellipse fill="none" stroke="black" cx="88.17" cy="-18" rx="27" ry="18"/>
<text text-anchor="middle" x="88.17" y="-13.8" font-family="Times,serif" font-size="14.00">2</text>
</g>
<!-- 4&#45;&gt;2 -->
<g id="edge16" class="edge">
<title>4&#45;&gt;2</title>
<path fill="none" stroke="black" d="M102.13,-80.56C99.87,-70.43 96.99,-57.52 94.44,-46.07"/>
<polygon fill="black" stroke="black" points="97.8,-45.07 92.21,-36.07 90.97,-46.6 97.8,-45.07"/>
</g>
<!-- 3 -->
<g id="node16" class="node">
<title>3</title>
<ellipse fill="none" stroke="black" cx="27" cy="-85.7" rx="27" ry="18"/>
<text text-anchor="middle" x="27" y="-81.5" font-family="Times,serif" font-size="14.00">3</text>
</g>
<!-- 4&#45;&gt;3 -->
<g id="edge17" class="edge">
<title>4&#45;&gt;3</title>
<path fill="none" stroke="black" d="M79.77,-94.18C74.62,-93.35 69.14,-92.47 63.72,-91.6"/>
<polygon fill="black" stroke="black" points="63.93,-88.09 53.5,-89.96 62.82,-95 63.93,-88.09"/>
</g>
<!-- 23 -->
<g id="node17" class="node">
<title>23</title>
<ellipse fill="none" stroke="black" cx="125.26" cy="-330.19" rx="27" ry="18"/>
<text text-anchor="middle" x="125.26" y="-325.99" font-family="Times,serif" font-size="14.00">23</text>
</g>
<!-- 20&#45;&gt;23 -->
<g id="edge18" class="edge">
<title>20&#45;&gt;23</title>
<path fill="none" stroke="black" d="M113.18,-260.17C113.02,-272.41 114.28,-288.88 116.33,-302.76"/>
<polygon fill="black" stroke="black" points="112.9,-303.5 118.04,-312.77 119.8,-302.32 112.9,-303.5"/>
</g>
<!-- 25 -->
<g id="node19" class="node">
<title>25</title>
<ellipse fill="none" stroke="black" cx="208.03" cy="-352.95" rx="27" ry="18"/>
<text text-anchor="middle" x="208.03" y="-348.75" font-family="Times,serif" font-size="14.00">25</text>
</g>
<!-- 26&#45;&gt;25 -->
<g id="edge21" class="edge">
<title>26&#45;&gt;25</title>
<path fill="none" stroke="black" d="M264.36,-331.16C256.96,-334.02 248.67,-337.23 240.76,-340.29"/>
<polygon fill="black" stroke="black" points="239.45,-337.04 231.39,-343.91 241.98,-343.57 239.45,-337.04"/>
</g>
<!-- 16&#45;&gt;26 -->
<g id="edge22" class="edge">
<title>16&#45;&gt;26</title>
<path fill="none" stroke="black" d="M353.59,-308.63C344.39,-310.51 333.87,-312.66 323.98,-314.68"/>
<polygon fill="black" stroke="black" points="323.09,-311.29 313.99,-316.72 324.49,-318.15 323.09,-311.29"/>
</g>
<!-- 15 -->
<g id="node20" class="node">
<title>15</title>
<ellipse fill="none" stroke="black" cx="438.69" cy="-365.24" rx="27" ry="18"/>
<text text-anchor="middle" x="438.69" y="-361.04" font-family="Times,serif" font-size="14.00">15</text>
</g>
<!-- 16&#45;&gt;15 -->
<g id="edge23" class="edge">
<title>16&#45;&gt;15</title>
<path fill="none" stroke="black" d="M394.24,-318.62C401,-325.72 409.18,-334.29 416.67,-342.15"/>
<polygon fill="black" stroke="black" points="414.42,-344.86 423.85,-349.68 419.48,-340.03 414.42,-344.86"/>
</g>
<!-- 17 -->
<g id="node21" class="node">
<title>17</title>
<ellipse fill="none" stroke="black" cx="386.16" cy="-390.68" rx="27" ry="18"/>
<text text-anchor="middle" x="386.16" y="-386.48" font-family="Times,serif" font-size="14.00">17</text>
</g>
<!-- 16&#45;&gt;17 -->
<g id="edge24" class="edge">
<title>16&#45;&gt;17</title>
<path fill="none" stroke="black" d="M380.99,-321.42C381.88,-333.25 383.05,-348.95 384.05,-362.41"/>
<polygon fill="black" stroke="black" points="380.58,-362.89 384.81,-372.61 387.56,-362.37 380.58,-362.89"/>
</g>
<!-- 14 -->
<g id="node22" class="node">
<title>14</title>
<ellipse fill="none" stroke="black" cx="440.53" cy="-298.52" rx="27" ry="18"/>
<text text-anchor="middle" x="440.53" y="-294.32" font-family="Times,serif" font-size="14.00">14</text>
</g>
<!-- 16&#45;&gt;14 -->
<g id="edge25" class="edge">
<title>16&#45;&gt;14</title>
<path fill="none" stroke="black" d="M406.52,-301.2C406.67,-301.19 406.81,-301.18 406.95,-301.16"/>
<polygon fill="black" stroke="black" points="403.74,-304.93 413.43,-300.65 403.19,-297.95 403.74,-304.93"/>
</g>
<!-- 18&#45;&gt;17 -->
<g id="edge26" class="edge">
<title>18&#45;&gt;17</title>
<path fill="none" stroke="black" d="M349.21,-368.52C351.83,-370.09 354.55,-371.72 357.27,-373.35"/>
<polygon fill="black" stroke="black" points="355.48,-376.36 365.86,-378.5 359.08,-370.36 355.48,-376.36"/>
</g>
<!-- 23&#45;&gt;20 -->
<g id="edge19" class="edge">
<title>23&#45;&gt;20</title>
<path fill="none" stroke="black" d="M129.11,-312.31C129.28,-300.07 128.02,-283.6 125.97,-269.71"/>
<polygon fill="black" stroke="black" points="129.4,-268.97 124.26,-259.7 122.5,-270.15 129.4,-268.97"/>
</g>
<!-- 22 -->
<g id="node18" class="node">
<title>22</title>
<ellipse fill="none" stroke="black" cx="71.94" cy="-394.23" rx="27" ry="18"/>
<text text-anchor="middle" x="71.94" y="-390.03" font-family="Times,serif" font-size="14.00">22</text>
</g>
<!-- 23&#45;&gt;22 -->
<g id="edge20" class="edge">
<title>23&#45;&gt;22</title>
<path fill="none" stroke="black" d="M112.08,-346.02C105.97,-353.35 98.59,-362.22 91.83,-370.35"/>
<polygon fill="black" stroke="black" points="89.05,-368.21 85.34,-378.14 94.43,-372.69 89.05,-368.21"/>
</g>
<!-- 21 -->
<g id="node27" class="node">
<title>21</title>
<ellipse fill="none" stroke="black" cx="45.95" cy="-343.05" rx="27" ry="18"/>
<text text-anchor="middle" x="45.95" y="-338.85" font-family="Times,serif" font-size="14.00">21</text>
</g>
<!-- 22&#45;&gt;21 -->
<g id="edge37" class="edge">
<title>22&#45;&gt;21</title>
<path fill="none" stroke="black" d="M63.14,-376.9C61.92,-374.48 60.63,-371.96 59.34,-369.42"/>
<polygon fill="black" stroke="black" points="62.39,-367.69 54.74,-360.36 56.15,-370.86 62.39,-367.69"/>
</g>
<!-- 25&#45;&gt;23 -->
<g id="edge27" class="edge">
<title>25&#45;&gt;23</title>
<path fill="none" stroke="black" d="M182.75,-346C175.61,-344.03 167.71,-341.86 160.11,-339.77"/>
<polygon fill="black" stroke="black" points="160.96,-336.37 150.39,-337.1 159.1,-343.12 160.96,-336.37"/>
</g>
<!-- 24 -->
<g id="node23" class="node">
<title>24</title>
<ellipse fill="none" stroke="black" cx="160.61" cy="-399.95" rx="27" ry="18"/>
<text text-anchor="middle" x="160.61" y="-395.75" font-family="Times,serif" font-size="14.00">24</text>
</g>
<!-- 25&#45;&gt;24 -->
<g id="edge28" class="edge">
<title>25&#45;&gt;24</title>
<path fill="none" stroke="black" d="M192.77,-368.08C189.64,-371.18 186.28,-374.51 182.96,-377.8"/>
<polygon fill="black" stroke="black" points="180.49,-375.32 175.85,-384.85 185.41,-380.3 180.49,-375.32"/>
</g>
<!-- 15&#45;&gt;14 -->
<g id="edge29" class="edge">
<title>15&#45;&gt;14</title>
<path fill="none" stroke="black" d="M439.19,-347.01C439.36,-340.83 439.56,-333.78 439.74,-326.99"/>
<polygon fill="black" stroke="black" points="443.25,-326.82 440.03,-316.73 436.25,-326.63 443.25,-326.82"/>
</g>
<!-- 13 -->
<g id="node24" class="node">
<title>13</title>
<ellipse fill="none" stroke="black" cx="424.7" cy="-223.96" rx="27" ry="18"/>
<text text-anchor="middle" x="424.7" y="-219.76" font-family="Times,serif" font-size="14.00">13</text>
</g>
<!-- 14&#45;&gt;13 -->
<g id="edge30" class="edge">
<title>14&#45;&gt;13</title>
<path fill="none" stroke="black" d="M442.57,-280.4C441.64,-271.47 439.59,-260.53 437.08,-250.66"/>
<polygon fill="black" stroke="black" points="440.4,-249.56 434.31,-240.89 433.67,-251.47 440.4,-249.56"/>
</g>
<!-- 24&#45;&gt;23 -->
<g id="edge31" class="edge">
<title>24&#45;&gt;23</title>
<path fill="none" stroke="black" d="M151.87,-382.7C147.91,-374.88 143.13,-365.45 138.72,-356.76"/>
<polygon fill="black" stroke="black" points="141.78,-355.05 134.14,-347.72 135.54,-358.22 141.78,-355.05"/>
</g>
<!-- 13&#45;&gt;30 -->
<g id="edge32" class="edge">
<title>13&#45;&gt;30</title>
<path fill="none" stroke="black" d="M409.68,-208.84C401.5,-200.62 391.23,-190.28 382.15,-181.14"/>
<polygon fill="black" stroke="black" points="384.4,-178.44 374.87,-173.81 379.43,-183.37 384.4,-178.44"/>
</g>
<!-- 13&#45;&gt;16 -->
<g id="edge33" class="edge">
<title>13&#45;&gt;16</title>
<path fill="none" stroke="black" d="M414.92,-241.18C408.92,-251.76 401.11,-265.5 394.37,-277.38"/>
<polygon fill="black" stroke="black" points="391.14,-275.98 389.24,-286.4 397.22,-279.44 391.14,-275.98"/>
</g>
<!-- 13&#45;&gt;14 -->
<g id="edge34" class="edge">
<title>13&#45;&gt;14</title>
<path fill="none" stroke="black" d="M422.66,-242.08C423.58,-251.01 425.64,-261.96 428.15,-271.82"/>
<polygon fill="black" stroke="black" points="424.82,-272.92 430.91,-281.59 431.56,-271.01 424.82,-272.92"/>
</g>
<!-- 12 -->
<g id="node25" class="node">
<title>12</title>
<ellipse fill="none" stroke="black" cx="468.21" cy="-156.48" rx="27" ry="18"/>
<text text-anchor="middle" x="468.21" y="-152.28" font-family="Times,serif" font-size="14.00">12</text>
</g>
<!-- 13&#45;&gt;12 -->
<g id="edge35" class="edge">
<title>13&#45;&gt;12</title>
<path fill="none" stroke="black" d="M435.45,-207.28C440.38,-199.63 446.34,-190.4 451.81,-181.91"/>
<polygon fill="black" stroke="black" points="454.8,-183.74 457.27,-173.44 448.91,-179.95 454.8,-183.74"/>
</g>
<!-- 11 -->
<g id="node26" class="node">
<title>11</title>
<ellipse fill="none" stroke="black" cx="507.99" cy="-238.99" rx="27" ry="18"/>
<text text-anchor="middle" x="507.99" y="-234.79" font-family="Times,serif" font-size="14.00">11</text>
</g>
<!-- 13&#45;&gt;11 -->
<g id="edge36" class="edge">
<title>13&#45;&gt;11</title>
<path fill="none" stroke="black" d="M451.05,-228.72C457.65,-229.91 464.84,-231.2 471.82,-232.46"/>
<polygon fill="black" stroke="black" points="471.34,-235.93 481.81,-234.27 472.59,-229.05 471.34,-235.93"/>
</g>
<!-- 8 -->
<g id="node28" class="node">
<title>8</title>
<ellipse fill="none" stroke="black" cx="501.78" cy="-200.77" rx="27" ry="18"/>
<text text-anchor="middle" x="501.78" y="-196.57" font-family="Times,serif" font-size="14.00">8</text>
</g>
<!-- 12&#45;&gt;8 -->
<g id="edge39" class="edge">
<title>12&#45;&gt;8</title>
<path fill="none" stroke="black" d="M480.52,-172.72C481.43,-173.93 482.36,-175.15 483.3,-176.39"/>
<polygon fill="black" stroke="black" points="480.64,-178.68 489.47,-184.53 486.22,-174.45 480.64,-178.68"/>
</g>
<!-- 10 -->
<g id="node29" class="node">
<title>10</title>
<ellipse fill="none" stroke="black" cx="583.01" cy="-180.78" rx="27" ry="18"/>
<text text-anchor="middle" x="583.01" y="-176.58" font-family="Times,serif" font-size="14.00">10</text>
</g>
<!-- 11&#45;&gt;10 -->
<g id="edge40" class="edge">
<title>11&#45;&gt;10</title>
<path fill="none" stroke="black" d="M525.77,-225.19C535.2,-217.87 546.97,-208.75 557.37,-200.67"/>
<polygon fill="black" stroke="black" points="559.6,-203.37 565.36,-194.48 555.31,-197.84 559.6,-203.37"/>
</g>
<!-- 21&#45;&gt;23 -->
<g id="edge38" class="edge">
<title>21&#45;&gt;23</title>
<path fill="none" stroke="black" d="M72.36,-338.76C77.71,-337.9 83.42,-336.97 89.05,-336.06"/>
<polygon fill="black" stroke="black" points="89.66,-339.5 98.97,-334.45 88.53,-332.59 89.66,-339.5"/>
</g>
<!-- 8&#45;&gt;13 -->
<g id="edge41" class="edge">
<title>8&#45;&gt;13</title>
<path fill="none" stroke="black" d="M476.96,-208.24C471.33,-209.93 465.24,-211.77 459.27,-213.56"/>
<polygon fill="black" stroke="black" points="458.03,-210.28 449.46,-216.51 460.05,-216.98 458.03,-210.28"/>
</g>
<!-- 9 -->
<g id="node30" class="node">
<title>9</title>
<ellipse fill="none" stroke="black" cx="585.14" cy="-237.12" rx="27" ry="18"/>
<text text-anchor="middle" x="585.14" y="-232.92" font-family="Times,serif" font-size="14.00">9</text>
</g>
<!-- 10&#45;&gt;9 -->
<g id="edge42" class="edge">
<title>10&#45;&gt;9</title>
<path fill="none" stroke="black" d="M583.7,-198.92C583.82,-202.14 583.95,-205.55 584.08,-208.97"/>
<polygon fill="black" stroke="black" points="580.58,-209.16 584.46,-219.02 587.58,-208.9 580.58,-209.16"/>
</g>
<!-- 9&#45;&gt;8 -->
<g id="edge43" class="edge">
<title>9&#45;&gt;8</title>
<path fill="none" stroke="black" d="M562.36,-227.19C553.54,-223.34 543.28,-218.87 533.75,-214.71"/>
<polygon fill="black" stroke="black" points="535.09,-211.48 524.53,-210.69 532.3,-217.9 535.09,-211.48"/>
</g>
</g>
</svg>
